<svg viewBox="0 0 100 100" style="shape-rendering: geometricprecision;" width="100px" height="100px" xmlns="http://www.w3.org/2000/svg">
  <defs></defs>
  <g transform="matrix(0.203734, 0, 0, 0.190636, -0.345958, -0.980193)" style="">
    <path style="opacity:1" fill="#f7d01c" d="M 248.5,66.5 C 257.811,66.7371 264.978,70.7371 270,78.5C 332,186.5 394,294.5 456,402.5C 459.333,419.985 452.167,430.152 434.5,433C 309.165,433.456 183.832,433.122 58.5,432C 43.238,425.967 38.4047,415.134 44,399.5C 105.081,293.003 166.414,186.67 228,80.5C 232.339,71.932 239.172,67.2654 248.5,66.5 Z"></path>
  </g>
  <g transform="matrix(0.203734, 0, 0, 0.190636, -0.345958, -0.980193)" style="">
    <path style="opacity:1" fill="#010100" d="M 247.5,78.5 C 253.039,78.3536 257.206,80.6869 260,85.5C 321.081,191.997 382.414,298.33 444,404.5C 446.62,412.76 443.786,418.26 435.5,421C 311.167,421.667 186.833,421.667 62.5,421C 53.4445,417.37 51.2778,411.204 56,402.5C 117.586,296.33 178.919,189.997 240,83.5C 241.913,80.7197 244.413,79.053 247.5,78.5 Z"></path>
  </g>
  <g transform="matrix(0.203734, 0, 0, 0.190636, -0.345958, -0.980193)" style="">
    <path style="opacity:1" fill="#f7cf00" d="M 248.5,121.5 C 250.074,121.937 251.241,122.937 252,124.5C 303.5,214.167 355,303.833 406.5,393.5C 301.502,394.667 196.502,394.833 91.5,394C 144.224,303.384 196.557,212.551 248.5,121.5 Z"></path>
  </g>
  <g transform="matrix(0.203734, 0, 0, 0.190636, -0.345958, -0.980193)" style="">
    <path style="opacity:1" fill="#000000" d="M 241.5,173.5 C 255.563,171.789 265.73,177.123 272,189.5C 269.905,226.215 266.905,262.881 263,299.5C 260.756,306.799 255.756,310.132 248,309.5C 241.688,309.678 237.021,307.011 234,301.5C 230.323,267.889 227.157,234.223 224.5,200.5C 223.868,187.412 229.535,178.412 241.5,173.5 Z"></path>
  </g>
  <g transform="matrix(0.203734, 0, 0, 0.190636, -0.345958, -0.980193)" style="">
    <path style="opacity:1" fill="#030200" d="M 243.5,325.5 C 258.011,324.667 267.844,331 273,344.5C 273.084,367.424 261.918,376.924 239.5,373C 224.645,364.437 220.812,352.271 228,336.5C 232.127,331.202 237.294,327.535 243.5,325.5 Z"></path>
  </g>
</svg>